<svg preserveAspectRatio="none" data-bbox="31 23.534 138.1 152.966" xmlns="http://www.w3.org/2000/svg" viewBox="31 23.534 138.1 152.966" role="presentation" aria-hidden="true">
    <g>
        <path d="M161.6 59.8h-43.7c1.1-1.1 2.3-2.3 3.3-3.7 4.1-5.4 6.2-11.4 5.5-16.2-.4-2.6-1.5-4.7-3.3-6.1-5.4-4-14.4-.5-21 8.1-.4.5-.7 1-1 1.5-.2-.6-.3-1.3-.5-1.9-3.5-12-11-19.5-17.4-17.7-2 .6-3.7 2-4.9 4.1-2.5 4.5-2.7 12.2-.5 20 1.4 4.8 3.4 8.9 5.8 11.9H38.4c-4.1 0-7.4 3.3-7.4 7.4V87c0 4.1 3.3 7.4 7.4 7.4h4.4v72c0 5.7 4.3 10.1 9.8 10.1h94.9c5.5 0 9.8-4.4 9.8-10.1v-72h4.4c4.1 0 7.4-3.3 7.4-7.4V67.2c-.1-4.1-3.4-7.4-7.5-7.4zm-54.5-14.2c4.9-6.4 10.7-8.4 12.6-6.9.5.4.9 1.1 1 2.1.4 3.1-1.3 7.7-4.3 11.8-3.6 4.7-7.8 7.1-10.5 7.3h-1c-.5-.1-.9-.2-1.2-.4-.5-.4-.9-1.1-1-2.1-.4-3.2 1.3-7.8 4.4-11.8zm-23.3.6c-2-7.1-1.5-12.8-.1-15.4.3-.5.7-1.1 1.3-1.3.1 0 .3-.1.4-.1 2.4 0 7.1 5 9.5 13.6 2 7.1 1.5 12.8.1 15.4-.3.5-.7 1.1-1.3 1.3h-.5c-2.3 0-6.9-5-9.4-13.5zM37 87V67.2c0-.8.6-1.4 1.4-1.4h46.9v22.6H38.4c-.8 0-1.4-.6-1.4-1.4zm54.2 83.5v-41.3c0-1.7-1.3-3-3-3s-3 1.3-3 3v41.3H52.5c-2.1 0-3.8-1.8-3.8-4.1v-72h36.5v15.7c0 1.7 1.3 3 3 3s3-1.3 3-3V65.9h17.5v104.6H91.2zm60.1-4.1c0 2.3-1.7 4.1-3.8 4.1h-32.7V94.4h36.5v72zM163 87c0 .8-.6 1.4-1.4 1.4h-46.9V65.8h46.9c.8 0 1.4.6 1.4 1.4V87z"></path>
    </g>
</svg>